<svg width="23" height="23" viewBox="0 0 23 23" fill="none" xmlns="http://www.w3.org/2000/svg">
<path d="M17.7467 0H5.07048C2.27031 0 0 2.27031 0 5.07048V17.7467C0 20.5469 2.27031 22.8172 5.07048 22.8172H12.1958V13.9933H9.22574V10.539H12.1958V7.99742C12.1958 5.05147 13.9971 3.44539 16.6261 3.44539C17.5122 3.44286 18.397 3.48849 19.278 3.57849V6.65881H17.4678C16.0354 6.65881 15.7565 7.33572 15.7565 8.3346V10.5339H19.1791L18.7342 13.9882H15.7362V22.8172H17.7467C20.5469 22.8172 22.8172 20.5469 22.8172 17.7467V5.07048C22.8172 2.27031 20.5469 0 17.7467 0Z" fill="white"/>
</svg>
