<svg width="52" height="46" viewBox="0 0 52 46" fill="none" xmlns="http://www.w3.org/2000/svg">
<path d="M25.9659 45.2876C19.2978 45.2876 12.6297 45.2876 5.96165 45.2876C3.77093 45.2876 2.12389 44.3122 1.05252 42.4413C-0.0188531 40.5864 0.0451095 38.6995 1.16445 36.8446C7.81656 25.747 14.4367 14.6176 21.0728 3.50406C23.4074 -0.397652 28.6044 -0.413643 30.939 3.50406C37.5911 14.6176 44.2113 25.7311 50.8474 36.8446C51.9507 38.6995 52.0147 40.6023 50.9593 42.4413C49.8879 44.3122 48.2409 45.2876 46.0502 45.2876C39.3661 45.2716 32.666 45.2876 25.9659 45.2876ZM25.9819 41.8176C32.4901 41.8176 38.9983 41.8176 45.5065 41.8176C45.9063 41.8176 46.306 41.8336 46.7058 41.7697C47.9851 41.5298 48.8166 40.1546 47.8891 38.6035C43.7795 31.7915 39.7339 24.9635 35.6563 18.1355C33.1138 13.866 30.5712 9.5965 28.0127 5.327C27.3571 4.22364 26.3817 3.71194 25.4542 4.14369C24.8626 4.43152 24.2709 4.95921 23.9351 5.53488C18.5783 14.4257 13.2694 23.3325 7.96048 32.2392C6.66524 34.414 5.354 36.5727 4.09074 38.7474C3.22725 40.2506 4.02678 41.7057 5.73778 41.8016C6.05759 41.8176 6.3774 41.8176 6.69722 41.8176C13.1255 41.8176 19.5537 41.8176 25.9819 41.8176Z" fill="#FF1E0A"/>
<path d="M24.3027 14.3457C25.4381 14.3457 26.5254 14.3457 27.6608 14.3457C27.6608 20.0544 27.6608 25.747 27.6608 31.4717C26.5734 31.4717 25.4701 31.4717 24.3027 31.4717C24.3027 25.811 24.3027 20.1183 24.3027 14.3457Z" fill="#FF1E0A"/>
<path d="M27.6761 38.3639C26.5408 38.3639 25.4375 38.3639 24.2861 38.3639C24.2861 37.2445 24.2861 36.1732 24.2861 35.0059C25.4055 35.0059 26.5088 35.0059 27.6761 35.0059C27.6761 36.1092 27.6761 37.1966 27.6761 38.3639Z" fill="#FF1E0A"/>
</svg>
