<svg width="55" height="34" viewBox="0 0 55 34" fill="none" xmlns="http://www.w3.org/2000/svg">
<path d="M18.7524 7.88511C18.8976 8.26652 19.2042 8.53057 19.5886 8.67727C19.7382 8.73448 20.0448 8.8269 20.2487 8.77996C20.3338 8.76089 20.4379 8.76382 20.5274 8.73595C20.9646 8.60245 21.3372 8.31053 21.5103 7.91445C21.544 7.80149 21.5792 7.69 21.613 7.57704C21.6819 7.30125 21.5866 6.99612 21.5103 6.81422C21.28 6.26851 20.8281 5.91937 20.0433 5.93404C19.9524 5.98978 19.725 5.97805 19.6179 6.02206C19.2277 6.18196 18.9123 6.46802 18.7524 6.85823C18.6893 7.01226 18.6351 7.27778 18.6791 7.47436C18.7143 7.63426 18.7011 7.75015 18.7524 7.88511Z" fill="#666666"/>
<path d="M31.765 5.4058C31.9381 5.52169 32.1801 5.42634 32.3078 5.33245C32.5102 5.18282 32.6525 4.94518 32.8652 4.80435C33.0808 4.66059 33.3332 4.59164 33.628 4.52562C33.8187 4.48308 34.0769 4.53589 34.2148 4.56963C34.5405 4.65032 34.828 4.70899 35.0803 4.86303C35.2373 4.95838 35.3986 5.07427 35.5644 5.15642C35.8299 5.28844 36.1937 5.25764 36.3419 5.03906C36.5942 4.66499 36.2172 4.29678 36.0045 4.14422C35.3942 3.70559 34.7165 3.44447 33.628 3.46941C33.5708 3.50462 33.4843 3.48115 33.408 3.49875C33.2862 3.52809 33.163 3.55743 33.0412 3.58677C32.5087 3.78188 32.0789 4.10901 31.7943 4.55496C31.6564 4.77061 31.4584 5.20043 31.765 5.4058Z" fill="#666666"/>
<path d="M36.4885 8.70666C36.4547 8.73013 36.4181 8.71839 36.3711 8.736C36.2728 8.77267 36.1613 8.83869 36.0777 8.89736C35.9354 8.99712 35.8063 9.13208 35.667 9.23477C35.1359 9.62498 34.6005 10.024 34.0386 10.379C32.6318 11.2665 31.1003 11.9721 29.3737 12.5501C28.6373 12.7966 27.8525 12.8978 27.0559 13.0929C26.6584 13.1912 26.2315 13.1648 25.8383 13.2542C25.5787 13.2645 25.3205 13.2733 25.0608 13.2836C24.7821 13.3452 24.4139 13.3129 24.0927 13.3129C23.9049 13.3129 23.6687 13.3335 23.5059 13.2983C23.3049 13.2939 23.1054 13.288 22.9044 13.2836C22.768 13.2528 22.5978 13.288 22.4497 13.2542C22.1401 13.1838 21.7837 13.2102 21.4668 13.1369C21.169 13.0679 20.8477 13.0694 20.5426 12.9902C19.9001 12.8244 19.2575 12.6997 18.6209 12.5501C18.0165 12.4078 17.7231 13.0943 17.8874 13.6063C18.1617 14.4616 18.7265 15.2713 19.2077 15.9388C20.1539 17.2517 21.2321 18.2683 22.6257 19.1368C22.9279 19.3245 23.258 19.5314 23.5939 19.6795C23.9298 19.8277 24.2804 19.97 24.6354 20.0903C24.8085 20.149 24.9582 20.1651 25.1342 20.2223C25.5185 20.347 25.9645 20.3866 26.3958 20.4864C26.5718 20.4966 26.7479 20.5054 26.9239 20.5157C27.0999 20.5553 27.4975 20.5671 27.672 20.5304C27.8085 20.5304 27.9464 20.5304 28.0828 20.5304C28.3762 20.501 28.6696 20.4717 28.963 20.4424C29.6304 20.2825 30.2744 20.1842 30.8553 19.9436C32.7536 19.1573 34.1853 17.972 35.2562 16.3642C35.6919 15.7099 36.0675 14.9735 36.3858 14.2078C36.5736 13.7574 36.6997 13.2748 36.8552 12.7995C37.0371 12.2406 37.065 11.6244 37.2073 11.0245C37.2264 10.7941 37.2469 10.5653 37.266 10.335C37.4361 9.57657 37.244 8.69492 36.4885 8.70666Z" fill="#666666"/>
<path d="M16.1634 27.7401C16.0827 27.6081 16.0724 27.3734 16.071 27.168C16.071 26.7191 16.071 26.2688 16.071 25.8199C16.071 25.4385 16.071 25.082 15.9595 24.8135C15.7776 24.3735 15.4783 24.1167 15.0543 23.9172C15.0162 23.9275 14.7654 23.8351 14.6935 23.816C14.5805 23.7837 14.4441 23.7808 14.3326 23.7603C14.2373 23.7427 14.0553 23.7691 13.9453 23.7515C13.9087 23.7735 13.8382 23.7485 13.7884 23.7603C13.6505 23.7823 13.5111 23.8028 13.3732 23.8248C13.0373 23.9202 12.7336 24.0229 12.5693 24.2869C12.4094 24.5422 12.4696 24.9221 12.6808 25.0717C12.8143 25.1671 13.0622 25.1964 13.2162 25.0996C13.5038 24.9192 13.5096 24.5524 13.9087 24.4527C14.0348 24.4204 14.1551 24.482 14.2226 24.5172C14.4192 24.6199 14.5174 24.8018 14.5835 25.0351C14.5996 25.0937 14.5864 25.1377 14.6025 25.2008C14.626 25.2991 14.6319 25.459 14.5937 25.5514C14.5438 25.6703 14.3957 25.7744 14.1874 25.7275C13.9761 25.6791 13.5346 25.6512 13.3101 25.7084C12.6236 25.883 12.2231 26.1265 12.0353 26.7983C11.9972 26.9348 11.984 27.1886 12.0163 27.3426C12.0412 27.457 12.0295 27.5392 12.0618 27.6375C12.207 28.0775 12.4828 28.3357 12.9111 28.4971C13.0461 28.547 13.294 28.6189 13.4744 28.5807C13.5272 28.5807 13.5786 28.5807 13.6314 28.5807C13.8045 28.5411 13.9732 28.5235 14.1214 28.4604C14.2827 28.3915 14.425 28.2917 14.6113 28.2477C14.7668 28.211 14.9678 28.3797 15.0734 28.4237C15.138 28.4501 15.1966 28.4472 15.2773 28.4604C15.515 28.5015 16.181 28.5103 16.3394 28.4047C16.4054 28.3607 16.4861 28.2404 16.4406 28.1186C16.3819 27.9646 16.2441 27.8722 16.1634 27.7401ZM14.3707 27.7401C14.2974 27.793 14.158 27.8942 14.0201 27.8692C13.7429 27.8208 13.583 27.6771 13.5023 27.435C13.4803 27.369 13.492 27.3162 13.4744 27.2414C13.4524 27.1446 13.4598 26.9905 13.4832 26.8996C13.5082 26.8072 13.539 26.7074 13.5845 26.6311C13.6563 26.5152 13.7766 26.4096 13.9072 26.3539C13.9512 26.3363 14.0084 26.3407 14.0451 26.3172C14.3282 26.3143 14.4969 26.4125 14.5805 26.6032C14.7478 26.9744 14.6289 27.5524 14.3707 27.7401Z" fill="#666666"/>
<path d="M22.4523 27.7313C22.3496 27.6609 22.1603 27.6873 22.0268 27.7225C21.999 27.7299 21.9212 27.7475 21.8889 27.7416C21.663 27.6976 21.556 27.6213 21.5017 27.4086C21.4987 27.3382 21.4958 27.2663 21.4929 27.1959C21.4606 27.0595 21.4841 26.8599 21.4841 26.7059C21.4811 26.2908 21.4782 25.8741 21.4753 25.459C21.4753 25.2184 21.4327 24.8707 21.5207 24.702C21.5648 24.617 21.6586 24.5539 21.7613 24.526C22.0606 24.4453 22.2909 24.5905 22.398 24.2957C22.4141 24.2517 22.4273 24.1695 22.4068 24.1108C22.285 23.772 21.7305 24.0214 21.5472 23.7881C21.3007 23.4727 21.6865 22.7671 21.0851 22.7715C21.0513 22.795 21.0059 22.7906 20.9648 22.8082C20.8914 22.839 20.8034 22.8845 20.7345 22.9285C20.4323 23.1192 20.1345 23.3759 19.9218 23.6576C19.8015 23.816 19.6548 23.9597 19.58 24.1651C19.4714 24.4585 19.7252 24.548 19.866 24.6551C19.9453 24.7152 19.979 24.837 20.0039 24.95C20.0039 25.0365 20.0039 25.1216 20.0039 25.2081C20.0347 25.3402 20.0274 25.6556 20.0039 25.7905C19.9966 25.8345 20.0127 25.9079 20.0127 25.9666C20.0157 26.1661 20.0186 26.367 20.0215 26.5666C20.0215 26.8805 20.0215 27.1944 20.0215 27.5083C20.023 27.5304 20.0406 27.592 20.0406 27.6096C20.0406 27.633 20.0377 27.6873 20.0494 27.7299C20.1638 28.1303 20.3633 28.3695 20.7242 28.5235C20.8504 28.5778 21.2347 28.6937 21.4445 28.6438C21.8493 28.5484 22.1706 28.5044 22.3862 28.2184C22.4464 28.1391 22.5872 28.01 22.5344 27.8311C22.5227 27.7841 22.4904 27.7563 22.4523 27.7313Z" fill="#666666"/>
<path d="M18.8698 27.7033C18.7891 27.5478 18.7964 27.253 18.7964 27.0285C18.792 25.7156 18.7876 24.4818 18.7876 23.1777C18.7876 22.8271 18.814 22.1523 18.6673 21.9587C18.5896 21.856 18.4268 21.8472 18.2419 21.8472C18.1583 21.8633 18.0762 21.878 17.9925 21.8926C17.7212 21.9792 17.2018 22.1112 17.1065 22.3547C17.0185 22.5777 17.2268 22.8315 17.2913 23.0295C17.3691 23.2687 17.328 23.6471 17.328 23.9435C17.328 25.1126 17.328 26.2833 17.328 27.4525C17.2943 27.605 17.2649 27.718 17.1901 27.8221C17.0757 27.9806 16.9114 28.0363 16.9319 28.3121C16.9833 28.3635 17.0155 28.4192 17.0889 28.45C17.2165 28.5043 17.4234 28.4867 17.5965 28.4867C17.9221 28.4867 18.2493 28.4867 18.5749 28.4867C18.8243 28.4867 19.1368 28.5116 19.194 28.3106C19.2629 28.2094 19.1632 28.0539 19.1206 27.9967C19.0429 27.897 18.9299 27.8221 18.8698 27.7033Z" fill="#666666"/>
<path d="M43.1034 27.3338C43.055 27.3206 43.0037 27.2781 42.9274 27.2971C42.8071 27.3265 42.7059 27.3881 42.6135 27.4453C42.4712 27.5319 42.2981 27.5935 42.1426 27.658C42.0384 27.6859 41.9328 27.7138 41.8287 27.7416C41.6879 27.7768 41.4854 27.746 41.3769 27.7138C40.9735 27.5935 40.7373 27.3015 40.6097 26.9099C40.4835 26.5226 40.9221 26.4302 41.1642 26.3378C41.6042 26.1705 42.0707 26.0165 42.5035 25.839C42.7074 25.7554 42.9567 25.7202 43.0668 25.5442C43.2149 25.305 42.9934 24.9148 42.8907 24.7505C42.502 24.1212 42.0076 23.7721 40.9691 23.7897C40.9339 23.8117 40.8781 23.797 40.8312 23.8088C40.727 23.8308 40.6214 23.8513 40.5173 23.8733C40.2723 23.954 40.0449 24.0611 39.8528 24.196C39.7897 24.24 39.7383 24.3075 39.6767 24.353C39.6195 24.3955 39.552 24.4454 39.511 24.5012C39.4391 24.5965 39.3525 24.6875 39.2895 24.7872C39.1296 25.0425 39.0254 25.3608 38.9477 25.6732C38.9154 25.8038 38.8831 26.1016 38.911 26.2366C38.911 26.307 38.911 26.3788 38.911 26.4493C38.9433 26.5959 38.9359 26.7529 38.9755 26.8923C39.1516 27.5157 39.4567 27.9602 39.9452 28.2683C40.3295 28.5103 41.126 28.7157 41.7553 28.5543C42.1206 28.4604 42.411 28.346 42.6795 28.167C42.8995 28.0174 43.3279 27.683 43.1034 27.3338ZM40.3427 25.2009C40.4087 24.9163 40.5261 24.6464 40.73 24.4982C40.7916 24.4542 40.8752 24.4117 40.9515 24.3867C40.9852 24.375 41.0351 24.3853 41.063 24.3677C41.4121 24.3662 41.5705 24.5892 41.6541 24.8576C41.6937 24.9867 41.7084 25.1906 41.6541 25.3197C41.55 25.5676 41.2933 25.6395 41.0439 25.7451C40.9236 25.7965 40.7094 25.9094 40.5363 25.8375C40.3618 25.7657 40.2782 25.4723 40.3427 25.2009Z" fill="#666666"/>
<path d="M38.0797 27.6839C37.9946 27.4844 38.024 27.1514 38.024 26.88C38.024 26.4062 38.024 25.9323 38.024 25.457C38.0269 25.2267 38.0298 24.9949 38.0328 24.7646C38.0489 24.6942 38.0489 24.6164 38.0694 24.5431C38.1091 24.4052 38.2 24.169 38.0973 24.0253C37.9653 23.8404 37.2978 23.905 36.9516 23.905C36.7301 23.905 36.4734 23.8756 36.3238 23.9416C36.2768 23.9622 36.2519 24.0135 36.2123 24.0429C36.2079 24.0825 36.1829 24.1147 36.1932 24.1631C36.2445 24.3979 36.4705 24.502 36.5438 24.7455C36.6098 24.9671 36.5717 25.4204 36.5717 25.6961C36.5717 26.4003 36.67 27.2629 36.2577 27.5621C36.1404 27.6472 35.9468 27.7353 35.7399 27.6736C35.2881 27.5387 35.2499 27.0854 35.2499 26.4913C35.2499 26.2228 35.2499 25.9558 35.2499 25.6873C35.2499 25.3954 35.2499 25.102 35.2499 24.8101C35.2617 24.7235 35.2749 24.637 35.2866 24.5519C35.3233 24.4228 35.4186 24.213 35.3424 24.0619C35.2646 23.9094 35.0504 23.905 34.8157 23.905C34.449 23.905 34.0822 23.905 33.717 23.905C33.6862 23.924 33.6246 23.9108 33.5879 23.924C33.4852 23.9578 33.3678 24.0517 33.4119 24.2013C33.4515 24.3333 33.5717 24.414 33.6422 24.5152C33.717 24.6223 33.7463 24.7411 33.7801 24.8937C33.783 25.0727 33.7859 25.2502 33.7889 25.4292C33.783 25.4556 33.7698 25.5186 33.7801 25.5582C33.8079 25.68 33.761 25.8487 33.7889 25.9837C33.7918 26.1714 33.7947 26.3592 33.7977 26.547C33.7977 27.0502 33.7757 27.5592 33.9268 27.9054C34.1703 28.4658 34.8905 28.8443 35.6915 28.5802C35.8734 28.5201 36.0568 28.4438 36.2093 28.3499C36.3106 28.2868 36.3986 28.2076 36.5321 28.1739C36.7198 28.1269 36.9105 28.3763 37.0396 28.4321C37.1233 28.4687 37.2025 28.4555 37.3081 28.4775C37.4577 28.5098 38.1076 28.5054 38.2411 28.4497C38.3482 28.4057 38.4641 28.2751 38.398 28.1167C38.3335 27.948 38.1545 27.8599 38.0797 27.6839Z" fill="#666666"/>
<path d="M32.7242 29.0707C32.6963 28.9474 32.7007 28.7142 32.7242 28.591C32.7242 28.3357 32.7242 28.0805 32.7242 27.8238C32.7271 26.9098 32.7301 25.9945 32.733 25.0806C32.736 24.8899 32.7389 24.6992 32.7418 24.5085C32.7521 24.463 32.7374 24.3808 32.7506 24.3236C32.8284 23.9818 32.6729 23.7471 32.3531 23.7515C32.3325 23.7647 32.3003 23.753 32.2695 23.7603C32.1829 23.7853 32.0964 23.8102 32.0113 23.8337C31.866 23.8938 31.7252 23.9657 31.5961 24.0464C31.5228 24.0919 31.401 24.1755 31.2543 24.1388C31.0724 24.0933 30.9287 23.9936 30.7644 23.9261C30.6514 23.8791 30.5223 23.863 30.3947 23.8337C30.3639 23.8337 30.3331 23.8337 30.3023 23.8337C30.201 23.8102 30.0089 23.8087 29.9047 23.8337C29.8328 23.8513 29.7595 23.8513 29.6744 23.8806C28.9482 24.1212 28.5727 24.6625 28.3351 25.396C28.2881 25.5412 28.2793 25.7466 28.2514 25.8757C28.2221 26.0091 28.2236 26.4463 28.2514 26.5783C28.2514 26.6179 28.2514 26.659 28.2514 26.6986C28.2778 26.8101 28.2734 26.9348 28.3072 27.0492C28.4099 27.4071 28.5258 27.7005 28.7135 27.9631C28.7957 28.0775 28.8793 28.2022 28.9908 28.2858C29.1346 28.3929 29.29 28.5044 29.4705 28.5719C29.582 28.613 29.6773 28.6144 29.8035 28.6452C29.8915 28.6672 30.0793 28.6907 30.1908 28.6643C30.3111 28.6364 30.4299 28.6364 30.5414 28.5998C30.6529 28.5631 30.7673 28.5103 30.8744 28.4707C30.9316 28.4501 31.068 28.4179 31.1238 28.4619C31.2837 28.5161 31.3042 29.0677 31.244 29.2834C31.1986 29.4462 30.9991 29.7469 31.0504 29.92C31.1516 30.2662 31.7267 30.3968 32.0934 30.4921C32.2783 30.5405 32.5599 30.5347 32.6846 30.4466C32.9164 30.2809 32.8049 29.7176 32.7404 29.4403C32.7139 29.3186 32.7521 29.1983 32.7242 29.0707ZM31.2734 26.2996C31.2734 26.8116 31.2837 27.2986 31.0695 27.592C30.9888 27.7035 30.845 27.7856 30.691 27.8223C30.4592 27.8766 30.3081 27.7357 30.201 27.6565C29.9032 27.4321 29.7859 26.8453 29.7859 26.3172C29.7888 26.1382 29.7918 25.9607 29.7947 25.7818C29.8138 25.6644 29.8314 25.5471 29.8504 25.4312C29.9311 25.1363 30.0455 24.8488 30.2656 24.6918C30.3228 24.6508 30.4093 24.6112 30.4783 24.5906C30.5164 24.5789 30.5604 24.5906 30.5898 24.5715C31.3805 24.5701 31.2734 25.5089 31.2734 26.2996Z" fill="#666666"/>
<path d="M27.4587 25.3579C27.1316 24.3472 26.4832 23.7545 25.1219 23.778C25.0691 23.8103 24.9737 23.7883 24.9092 23.8059C24.7757 23.8426 24.5864 23.8748 24.4471 23.935C23.831 24.2034 23.429 24.6464 23.1723 25.2743C23.1019 25.4459 23.0726 25.6733 23.0344 25.8464C23.0095 25.9594 23.0007 26.2601 23.0256 26.373C23.0256 26.4258 23.0256 26.4772 23.0256 26.53C23.0271 26.5388 23.0447 26.6048 23.0447 26.6136C23.0388 26.8703 23.1606 27.1505 23.2486 27.3529C23.4936 27.9133 23.8691 28.2243 24.4397 28.462C24.5864 28.5236 24.7639 28.55 24.9385 28.591C25.0089 28.6072 25.0984 28.591 25.1512 28.5998C25.2715 28.6218 25.5091 28.6248 25.6133 28.5998C25.8099 28.5529 26.0035 28.5412 26.1766 28.4708C26.6959 28.2595 27.1184 27.8884 27.3399 27.3808C27.4323 27.1681 27.4822 26.9363 27.5423 26.6884C27.5482 26.6121 27.5541 26.5344 27.5614 26.4581C27.579 26.3877 27.5702 26.2762 27.5702 26.1897C27.5687 25.8493 27.5394 25.6073 27.4587 25.3579ZM26.0182 26.5388C25.9888 26.6796 26.0299 26.8116 25.9991 26.9451C25.9287 27.2503 25.8964 27.5275 25.7409 27.7388C25.6544 27.8561 25.5194 27.9309 25.3536 27.9691C25.2158 27.9999 25.0823 27.9236 25.0119 27.8766C24.8065 27.7402 24.717 27.5246 24.6422 27.2576C24.6334 27.1901 24.6231 27.1226 24.6143 27.0537C24.5864 26.9437 24.5879 26.7618 24.5688 26.6664C24.5688 26.5623 24.5688 26.4566 24.5688 26.3525C24.5527 26.2821 24.5542 26.1457 24.5688 26.0752C24.5908 25.974 24.5586 25.842 24.5776 25.7525C24.6026 25.6352 24.5703 25.531 24.5967 25.4195C24.6642 25.1276 24.7067 24.8591 24.8549 24.6523C24.9121 24.5731 25.0104 24.4895 25.1043 24.4484C25.1439 24.4308 25.1982 24.4352 25.2334 24.4117C25.4681 24.4103 25.6236 24.5012 25.7233 24.6332C25.826 24.7711 25.8685 24.9237 25.9272 25.1129C25.9771 25.2758 25.9786 25.4826 26.0196 25.6674C26.0196 25.732 26.0196 25.7965 26.0196 25.8611C26.046 25.9902 26.0446 26.4126 26.0182 26.5388Z" fill="#666666"/>
<path d="M0.638184 0.0859375V-0.914062H-0.361816V0.0859375H0.638184ZM54.4572 0.0859375H55.4572V-0.914062H54.4572V0.0859375ZM54.4572 33.905V34.905H55.4572V33.905H54.4572ZM0.638184 33.905H-0.361816V34.905H0.638184V33.905ZM0.638184 1.08594H54.4572V-0.914062H0.638184V1.08594ZM53.4572 0.0859375V33.905H55.4572V0.0859375H53.4572ZM54.4572 32.905H0.638184V34.905H54.4572V32.905ZM1.63818 33.905V0.0859375H-0.361816V33.905H1.63818Z" fill="#666666"/>
</svg>
