<svg width="60" height="60" viewBox="0 0 60 60" fill="none" xmlns="http://www.w3.org/2000/svg">
<path d="M49.8575 8.26733H47.8616V4.28564H44.3173V8.26733H15.6833V4.28564H12.139V8.26733H10.143C6.91587 8.26733 4.28564 10.8786 4.28564 14.101V49.8991C4.28564 53.103 6.91587 55.7142 10.143 55.7142H49.8575C53.0847 55.7142 55.7149 53.103 55.7149 49.8991V14.101C55.7149 10.8786 53.0847 8.26733 49.8575 8.26733ZM10.143 11.786H12.139V15.6196H15.6833V11.786H44.3173V15.6196H47.8616V11.786H49.8575C51.1447 11.786 52.1706 12.8231 52.1706 14.0824V20.0828H7.82992V14.101C7.82992 12.8231 8.87455 11.786 10.143 11.786ZM49.8575 52.1955H10.143C8.85589 52.1955 7.82992 51.1584 7.82992 49.8991V23.62H52.1706V49.8991C52.1706 51.1584 51.1447 52.1955 49.8575 52.1955Z" fill="#E73737"/>
<path d="M31.7801 28.4346H28.2358V39.7685H31.7801V28.4346Z" fill="#E73737"/>
<path d="M31.7801 44.1021H28.2358V48.2134H31.7801V44.1021Z" fill="#E73737"/>
</svg>
