<svg width="106" height="106" viewBox="0 0 106 106" fill="none" xmlns="http://www.w3.org/2000/svg">
<path d="M73.1049 84.0745H28.1728C27.4611 84.0745 26.8821 83.5012 26.8821 82.7966V77.8523C26.8821 77.1477 27.4491 76.5745 28.1607 76.5745L51.7546 76.4192L51.8391 64.2973H18.1852C17.4735 64.2973 16.8945 63.7241 16.8945 63.0195V23.4771C16.8945 22.7725 17.4735 22.1992 18.1852 22.1992H88.0863C88.798 22.1992 89.377 22.7725 89.377 23.4771V63.0195C89.377 63.7241 88.798 64.2973 88.0863 64.2973H58.1235V61.7416H86.7836V24.755H19.4759V61.7416H53.1297C53.4795 61.7416 53.8052 61.873 54.0465 62.1238C54.2877 62.3626 54.4204 62.697 54.4204 63.0314L54.3239 77.6971C54.3239 78.4017 53.7449 78.963 53.0453 78.963L29.4635 79.1183V81.5187H72.0434C72.5862 79.7034 74.4197 76.5864 80.5956 76.5864C89.2805 76.5864 89.377 82.7488 89.377 82.8086H86.7957C86.7836 82.4503 86.5182 79.1421 80.5956 79.1421C74.673 79.1421 74.4076 82.4264 74.3956 82.8086C74.3715 83.5012 73.8045 84.0745 73.1049 84.0745Z" fill="white"/>
</svg>
