<svg width="38" height="40" viewBox="0 0 38 40" fill="none" xmlns="http://www.w3.org/2000/svg">
<path d="M31.8329 26.4881L30.9668 25.1889C33.9386 23.2027 35.7007 19.8875 35.7007 16.3184H37.2688C37.2688 20.4102 35.2378 24.2033 31.8329 26.4881Z" fill="#FF1E0A"/>
<path d="M37.2691 16.3185H35.7011V5.65591H30.1309V4.08789H36.4926C36.9256 4.08789 37.284 4.44629 37.284 4.87937V16.3185H37.2691Z" fill="#FF1E0A"/>
<path d="M31.4016 39.9887H5.95482C5.52175 39.9887 5.16334 39.6303 5.16334 39.1973V32.8356C5.16334 32.4025 5.50681 32.0441 5.95482 32.0441H17.8867V29.0126C17.8867 28.5795 18.2302 28.2211 18.6782 28.2211C24.562 28.2211 29.3408 23.4424 29.3408 17.5586V1.80366H8.01565V4.83518C8.01565 5.26825 7.67218 5.62665 7.22417 5.62665H1.65396V17.5586C1.65396 20.6946 3.01291 23.6514 5.40228 25.6824H9.52394C7.55271 23.4573 6.4327 20.5602 6.4327 17.5586V9.92751H8.00072V17.5586C8.00072 20.5901 9.29994 23.4872 11.5549 25.5032C11.7192 25.6525 11.8088 25.8616 11.8088 26.0856V26.4589C11.8088 26.892 11.4653 27.2504 11.0173 27.2504H5.11854C4.93934 27.2504 4.76014 27.1907 4.62574 27.0712C1.74356 24.7416 0.0859375 21.2621 0.0859375 17.5586V4.83518C0.0859375 4.4021 0.429409 4.04369 0.877415 4.04369H6.44763V1.01218C6.44763 0.579106 6.7911 0.220703 7.23911 0.220703H30.1322C30.5653 0.220703 30.9237 0.579106 30.9237 1.01218V17.5436C30.9237 24.0248 25.8612 29.3411 19.4846 29.7443V32.8057C19.4846 33.2388 19.1411 33.5972 18.6931 33.5972H6.7463V38.3908H30.6101V33.5972H23.7705V32.0292H31.4016C31.8347 32.0292 32.1931 32.3876 32.1931 32.8206V39.1823C32.1781 39.6453 31.8347 39.9887 31.4016 39.9887Z" fill="#FF1E0A"/>
</svg>
