<svg width="56" height="44" viewBox="0 0 56 44" fill="none" xmlns="http://www.w3.org/2000/svg">
<rect x="1" y="5.36816" width="54" height="34" stroke="#666666"/>
<path d="M14.0635 23.3059L14.0663 24.9136L17.0263 24.9075L17.0291 26.4573L14.0663 26.4634L14.0691 28.2415L17.2713 28.2355L17.2741 29.7853L12.351 29.7975L12.3398 21.7591L17.2741 21.75L17.2769 23.2998L14.0635 23.3059Z" fill="#666666"/>
<path d="M23.798 24.14L22.0298 29.779L19.7632 29.7821L17.9922 24.1491L19.7465 23.9269L20.9076 28.3906L22.0465 23.9238L23.798 24.14Z" fill="#666666"/>
<path d="M25.7429 29.6482C25.3057 29.4046 24.952 29.0483 24.6819 28.5764C24.4118 28.1075 24.2754 27.5503 24.2754 26.9078C24.2754 26.2654 24.409 25.7082 24.6764 25.2362C24.9437 24.7643 25.2973 24.408 25.7345 24.1614C26.1717 23.9148 26.6423 23.793 27.1463 23.793C27.6419 23.793 28.1098 23.9148 28.5497 24.1583C28.9869 24.4019 29.3405 24.7612 29.6106 25.2301C29.8807 25.699 30.0172 26.2562 30.0172 26.8987C30.0172 27.5564 29.8891 28.1197 29.6273 28.5886C29.3656 29.0575 29.0175 29.4107 28.5831 29.6512C28.1487 29.8917 27.6726 30.0135 27.1546 30.0166C26.6534 30.0135 26.1828 29.8917 25.7429 29.6482ZM27.9984 28.1379C28.2323 27.8395 28.3492 27.4254 28.3492 26.8987C28.3492 26.3719 28.2323 25.9578 28.0012 25.6594C27.77 25.361 27.4832 25.2119 27.1407 25.2119C26.7982 25.2119 26.5142 25.3611 26.2914 25.6625C26.0687 25.9609 25.9573 26.375 25.9573 26.9017C25.9573 27.4376 26.0687 27.8517 26.2886 28.1471C26.5086 28.4424 26.7926 28.5886 27.1352 28.5886C27.4777 28.5886 27.7645 28.4394 27.9984 28.1379Z" fill="#666666"/>
<path d="M30.9355 21.7286L32.6063 21.7256L32.6174 29.7639L30.9467 29.767L30.9355 21.7286Z" fill="#666666"/>
<path d="M33.9316 25.5803L37.5432 25.5742L37.546 27.1118L33.9344 27.1179L33.9316 25.5803Z" fill="#666666"/>
<path d="M44.5971 23.3453L42.414 23.3483L42.4224 29.7424L40.7015 29.7455L40.6709 23.3513L38.5184 23.3544L38.5156 21.7132L44.5944 21.7041L44.5971 23.3453Z" fill="#666666"/>
<path d="M12.4708 18.0088C12.8189 18.2889 13.309 18.5416 13.955 18.5416C14.4172 18.5416 14.9213 18.4015 14.9213 18.0209C14.9213 17.6952 14.4646 17.4851 13.877 17.2476C13.1085 16.9553 12.3483 16.599 12.3483 15.5486C12.3455 14.3519 13.3313 13.9318 14.2836 13.9287C14.8656 13.9287 15.3779 14.081 15.8318 14.3306L15.5004 15.372C15.2164 15.1619 14.6846 15.0096 14.1861 15.0096C13.7824 15.0096 13.4064 15.1436 13.4064 15.4389C13.4064 15.78 13.8965 15.92 14.4646 16.1423C15.2888 16.4681 16.0434 16.8304 16.0434 17.9022C16.0462 19.1597 15.0243 19.653 14.0218 19.653C13.2839 19.653 12.6156 19.3911 12.1172 19.0196L12.4708 18.0088Z" fill="#666666"/>
<path d="M19.2854 19.5032C19.199 19.2535 19.1433 18.9977 19.1071 18.7207C18.851 19.3114 18.4277 19.6219 17.9014 19.625C17.2693 19.625 16.6149 19.1835 16.6122 17.8164L16.6094 15.6271L17.7399 15.6241L17.7427 17.518C17.7511 18.2091 18.0128 18.4893 18.3414 18.4862C18.7396 18.4862 18.9874 18.0813 18.9846 17.25L18.9818 15.618L20.1124 15.6149L20.1152 18.2548C20.1152 18.745 20.1736 19.1256 20.2934 19.4971L19.2854 19.5032ZM18.9874 14.9603L17.9794 14.9634C18.0908 14.3818 18.3247 13.8368 18.5391 13.4014L19.6613 13.4227C19.4274 13.849 19.1489 14.394 18.9874 14.9603Z" fill="#666666"/>
<path d="M24.9784 17.5364C24.9812 18.9187 24.1709 19.6038 23.3049 19.6038C22.8649 19.6038 22.4583 19.3876 22.1743 18.9857L22.1632 20.8248L21.0326 20.8278L21.0271 16.9152C21.0271 16.425 20.9825 15.9987 20.8906 15.6181L21.8986 15.6151C21.9488 15.8252 21.9989 16.0353 22.0351 16.2606C22.3191 15.746 22.8008 15.4902 23.3132 15.4902C24.1569 15.4902 24.9756 16.1692 24.9784 17.5364ZM23.8339 17.5394C23.8339 16.8482 23.4413 16.4615 23.0097 16.4615C22.5836 16.4615 22.1799 16.8421 22.1799 17.5424C22.1799 18.2427 22.5864 18.6294 23.0264 18.6294C23.458 18.6264 23.8339 18.2397 23.8339 17.5394Z" fill="#666666"/>
<path d="M29.1477 17.8561L26.5831 17.8591C26.6973 18.4011 27.0871 18.6964 27.6217 18.6964C27.9977 18.6964 28.4515 18.5564 28.8581 18.2976L29.0447 19.2049C28.5323 19.5003 28.0088 19.6495 27.4964 19.6495C26.3826 19.6525 25.4414 18.9309 25.4414 17.5394C25.4386 16.0962 26.4466 15.4415 27.3349 15.4385C28.3429 15.4354 29.1338 16.1814 29.156 17.4846L29.1477 17.8561ZM28.1536 17.0888C28.109 16.7082 27.8111 16.3824 27.399 16.3824C27.0091 16.3824 26.7167 16.6625 26.6054 17.0918L28.1536 17.0888Z" fill="#666666"/>
<path d="M32.4067 15.5904L32.1032 16.7169C31.1926 16.4155 30.8891 17.0062 30.8891 17.6669V17.6974L30.8919 19.4847L29.7614 19.4877L29.7586 16.8479C29.7586 16.3577 29.7085 15.9862 29.5859 15.6056L30.6719 15.6025C30.7304 15.8431 30.7805 16.0928 30.8139 16.3637C31.1063 15.7548 31.6242 15.3285 32.4067 15.5904Z" fill="#666666"/>
</svg>
