<svg width="106" height="106" viewBox="0 0 106 106" fill="none" xmlns="http://www.w3.org/2000/svg">
<path d="M97.8493 73.2171L79.7126 49.9488L80.3208 48.4872C81.697 45.1799 80.8328 41.3499 78.187 38.9601L69.5027 31.0973C66.9849 28.8249 63.731 27.5553 60.3384 27.5446L50.6939 27.502C50.1925 27.502 49.7337 27.822 49.5737 28.3021L48.7522 30.6492L38.4996 28.9529C36.1312 28.5581 33.7414 28.6648 31.4156 29.2729L19.4774 32.3562C18.8906 32.5056 18.5066 33.0817 18.6026 33.6791L19.7868 41.6272C19.8401 41.9686 20.0322 42.2674 20.3202 42.4594C20.6083 42.6408 20.971 42.6941 21.3018 42.5981L27.7243 40.6777C32.3011 39.3122 37.2087 39.0348 41.9136 39.8776L45.6583 40.5497L42.2016 52.648C42.063 53.1281 42.2443 53.6508 42.6497 53.9389L50.1391 59.3265L51.5261 57.3955L44.7088 52.4879L48.2934 39.9309C48.3895 39.6109 48.3361 39.2588 48.1548 38.9708C47.9734 38.6827 47.6853 38.4907 47.3546 38.4267L42.319 37.5305C37.2514 36.6237 31.9704 36.9224 27.0308 38.3946L21.9205 39.9203L21.1097 34.3832L32.0131 31.5667C34.0188 31.0546 36.0672 30.9586 38.1156 31.2893L49.3496 33.1563C49.9258 33.2524 50.4805 32.9216 50.6619 32.3775L51.5261 29.8917L60.3277 29.9237C63.1335 29.9344 65.822 30.9799 67.9024 32.8576L76.5867 40.7204C78.4964 42.4487 79.1045 45.2012 78.123 47.5804L77.4189 49.266L56.6043 59.1345C56.1242 59.3586 55.8575 59.8706 55.9429 60.3934L56.711 65.4397C57.0738 67.8081 58.29 69.9632 60.1677 71.4995L67.5077 77.2499C67.7211 77.4206 67.9771 77.5059 68.2438 77.5059C68.4145 77.5059 68.5959 77.4739 68.7559 77.3886L76.7468 73.6012C77.0668 73.4518 77.3015 73.1638 77.3869 72.8117C77.4722 72.4703 77.3975 72.0969 77.1842 71.8195L73.5568 66.9333L71.6471 68.3522L74.4103 72.0756L68.3825 74.9348L61.6399 69.6538C60.2423 68.5016 59.3142 66.88 59.0475 65.0876L58.4073 60.9162L62.9628 58.7611L64.9579 66.2505L67.2516 65.6424L65.1499 57.7262L70.3882 55.2405L88.6956 78.5941C88.9304 78.8929 89.2717 79.0529 89.6345 79.0529C89.8265 79.0529 90.0186 79.0102 90.1999 78.9142L97.4546 75.0201C97.764 74.8494 97.988 74.5614 98.052 74.22C98.1481 73.8573 98.0627 73.4945 97.8493 73.2171ZM89.9759 76.3217L72.6073 54.1736L77.995 51.6238L95.0968 73.5692L89.9759 76.3217Z" fill="white"/>
<path d="M17.7499 46.8766C17.5259 46.6313 17.2165 46.4499 16.8538 46.4926C16.5124 46.4926 16.1923 46.6419 15.9683 46.898L10.1005 53.6299C8.29751 55.4649 7.32666 57.908 7.348 60.4792C7.38001 63.061 8.4042 65.4721 10.2499 67.2751C12.1276 69.1101 14.5707 70.0276 17.0031 70.0276C19.5103 70.0276 22.0174 69.0568 23.9058 67.1258C25.7088 65.2801 26.6903 62.8476 26.6583 60.2658C26.6263 57.684 25.6021 55.2729 23.7991 53.5125L17.7499 46.8766ZM22.2094 65.4721C19.4036 68.342 14.7841 68.3847 11.9142 65.5788C9.04432 62.7729 9.00164 58.1534 11.8502 55.2302L16.8858 49.4585L22.0921 55.1769C23.479 56.5318 24.2578 58.3561 24.2792 60.2978C24.3112 62.2502 23.5644 64.0852 22.2094 65.4721Z" fill="white"/>
</svg>
