<svg width="24" height="23" viewBox="0 0 24 23" fill="none" xmlns="http://www.w3.org/2000/svg">
<path fill-rule="evenodd" clip-rule="evenodd" d="M7.00546 0.0685665C8.22408 0.0124666 8.61262 0 11.7168 0C14.821 0 15.2096 0.0135055 16.4271 0.0685665C17.6447 0.123627 18.4758 0.317899 19.203 0.599438C19.9645 0.887209 20.6554 1.33705 21.2268 1.91882C21.8086 2.48917 22.2574 3.17899 22.5441 3.94154C22.8267 4.66876 23.0199 5.49987 23.076 6.71536C23.1321 7.93605 23.1446 8.3246 23.1446 11.4278C23.1446 14.5319 23.1311 14.9205 23.076 16.1391C23.0209 17.3546 22.8267 18.1857 22.5441 18.9129C22.2573 19.6756 21.8078 20.3665 21.2268 20.9377C20.6554 21.5195 19.9645 21.9683 19.203 22.255C18.4758 22.5376 17.6447 22.7308 16.4292 22.7869C15.2095 22.843 14.821 22.8555 11.7168 22.8555C8.61262 22.8555 8.22408 22.842 7.00546 22.7869C5.78997 22.7319 4.95886 22.5376 4.23164 22.255C3.46901 21.9683 2.77805 21.5187 2.20685 20.9377C1.62547 20.367 1.17556 19.6764 0.8885 18.914C0.606962 18.1867 0.413729 17.3556 0.357629 16.1401C0.301529 14.9194 0.289062 14.5309 0.289062 11.4278C0.289062 8.32356 0.302568 7.93502 0.357629 6.71744C0.41269 5.49987 0.606962 4.66876 0.8885 3.94154C1.17598 3.17908 1.62623 2.48846 2.20789 1.91778C2.77828 1.33653 3.46855 0.886631 4.2306 0.599438C4.95782 0.317899 5.78893 0.124666 7.00443 0.0685665H7.00546ZM16.3347 2.12556C15.1296 2.0705 14.768 2.05907 11.7168 2.05907C8.6656 2.05907 8.30407 2.0705 7.09896 2.12556C5.98424 2.17647 5.37961 2.36243 4.97652 2.5193C4.44357 2.72708 4.0623 2.97329 3.66233 3.37326C3.28318 3.74212 2.99139 4.19116 2.80836 4.68746C2.65149 5.09054 2.46553 5.69518 2.41462 6.8099C2.35956 8.01501 2.34814 8.37654 2.34814 11.4278C2.34814 14.479 2.35956 14.8405 2.41462 16.0456C2.46553 17.1603 2.65149 17.765 2.80836 18.168C2.99121 18.6636 3.28313 19.1134 3.66233 19.4822C4.03113 19.8614 4.48097 20.1534 4.97652 20.3362C5.37961 20.4931 5.98424 20.679 7.09896 20.7299C8.30407 20.785 8.66457 20.7964 11.7168 20.7964C14.7691 20.7964 15.1296 20.785 16.3347 20.7299C17.4494 20.679 18.054 20.4931 18.4571 20.3362C18.9901 20.1284 19.3713 19.8822 19.7713 19.4822C20.1505 19.1134 20.4424 18.6636 20.6253 18.168C20.7821 17.765 20.9681 17.1603 21.019 16.0456C21.0741 14.8405 21.0855 14.479 21.0855 11.4278C21.0855 8.37654 21.0741 8.01501 21.019 6.8099C20.9681 5.69518 20.7821 5.09054 20.6253 4.68746C20.4175 4.15451 20.1713 3.77324 19.7713 3.37326C19.4024 2.99415 18.9534 2.70236 18.4571 2.5193C18.054 2.36243 17.4494 2.17647 16.3347 2.12556ZM10.2572 14.9506C11.0724 15.2899 11.98 15.3357 12.8252 15.0802C13.6704 14.8246 14.4007 14.2836 14.8912 13.5494C15.3818 12.8153 15.6023 11.9336 15.515 11.0549C15.4278 10.1762 15.0381 9.35515 14.4127 8.73184C14.014 8.3334 13.532 8.02832 13.0012 7.83855C12.4705 7.64878 11.9043 7.57905 11.3433 7.63438C10.7824 7.6897 10.2407 7.86871 9.75727 8.15851C9.27383 8.44831 8.86065 8.8417 8.54749 9.31035C8.23432 9.779 8.02896 10.3112 7.94619 10.8688C7.86342 11.4263 7.9053 11.9953 8.06881 12.5347C8.23231 13.0741 8.51339 13.5706 8.89179 13.9883C9.2702 14.4061 9.73652 14.7347 10.2572 14.9506ZM7.56335 7.27428C8.10879 6.72884 8.75632 6.29618 9.46897 6.00098C10.1816 5.70579 10.9454 5.55386 11.7168 5.55386C12.4882 5.55386 13.252 5.70579 13.9647 6.00098C14.6773 6.29617 15.3248 6.72884 15.8703 7.27428C16.4157 7.81972 16.8484 8.46726 17.1436 9.17991C17.4388 9.89256 17.5907 10.6564 17.5907 11.4278C17.5907 12.1991 17.4388 12.9629 17.1436 13.6756C16.8484 14.3882 16.4157 15.0358 15.8703 15.5812C14.7687 16.6828 13.2747 17.3016 11.7168 17.3016C10.159 17.3016 8.66491 16.6828 7.56335 15.5812C6.46178 14.4797 5.84292 12.9856 5.84292 11.4278C5.84292 9.8699 6.46178 8.37585 7.56335 7.27428ZM18.8934 6.42863C19.0286 6.30113 19.1368 6.1478 19.2117 5.97773C19.2865 5.80765 19.3265 5.62429 19.3292 5.4385C19.3319 5.25271 19.2973 5.06826 19.2274 4.89607C19.1576 4.72389 19.0539 4.56748 18.9225 4.43609C18.7911 4.3047 18.6347 4.201 18.4625 4.13115C18.2903 4.0613 18.1059 4.0267 17.9201 4.02941C17.7343 4.03212 17.5509 4.07208 17.3809 4.14692C17.2108 4.22176 17.0575 4.32997 16.9299 4.46513C16.682 4.728 16.5462 5.07716 16.5515 5.4385C16.5568 5.79983 16.7026 6.14489 16.9582 6.40042C17.2137 6.65595 17.5587 6.80183 17.9201 6.8071C18.2814 6.81236 18.6306 6.6766 18.8934 6.42863Z" fill="white"/>
</svg>
