<svg width="18" height="26" viewBox="0 0 18 26" fill="none" xmlns="http://www.w3.org/2000/svg">
<path d="M8.99969 0.519531C4.40297 0.519531 0.679688 4.24281 0.679688 8.83953C0.679688 12.64 2.68656 16.7248 4.66094 19.8895C6.63531 23.0542 8.60969 25.3008 8.60969 25.3008C8.70922 25.4125 8.85141 25.4775 8.99969 25.4775C9.14797 25.4775 9.29016 25.4125 9.38969 25.3008C9.38969 25.3008 11.3661 23.0075 13.3384 19.8245C15.3108 16.6416 17.3197 12.5669 17.3197 8.83953C17.3197 4.24281 13.5964 0.519531 8.99969 0.519531ZM8.99969 1.55953C13.0358 1.55953 16.2797 4.80344 16.2797 8.83953C16.2797 12.185 14.3886 16.1622 12.4609 19.272C10.8461 21.8781 9.47906 23.5559 8.99969 24.1308C8.51625 23.56 7.14922 21.9187 5.53844 19.337C3.61281 16.2495 1.71969 12.2662 1.71969 8.83953C1.71969 4.80344 4.96359 1.55953 8.99969 1.55953ZM8.99969 5.71953C6.99484 5.71953 5.35969 7.35469 5.35969 9.35953C5.35969 11.3644 6.99484 12.9995 8.99969 12.9995C11.0045 12.9995 12.6397 11.3644 12.6397 9.35953C12.6397 7.35469 11.0045 5.71953 8.99969 5.71953ZM8.99969 6.75953C10.4419 6.75953 11.5997 7.91734 11.5997 9.35953C11.5997 10.8017 10.4419 11.9595 8.99969 11.9595C7.5575 11.9595 6.39969 10.8017 6.39969 9.35953C6.39969 7.91734 7.5575 6.75953 8.99969 6.75953Z" fill="#FF1E0A"/>
</svg>
