<svg width="173" height="53" viewBox="0 0 173 53" fill="none" xmlns="http://www.w3.org/2000/svg">
<path d="M0 0H172.994C172.994 0 173.692 30.7971 159.5 52.9377H0V0Z" fill="white"/>
<g clip-path="url(#clip0)">
<path d="M81.186 34.6215C79.2502 34.6215 78.1793 33.4271 78.0558 32.0267C81.186 31.8208 86.4169 30.9146 86.4169 26.3016C86.4169 22.9654 84.1927 21.3179 80.8565 21.3179C75.4197 21.3179 72.6602 25.7662 72.6602 30.3792C72.6602 35.5689 75.5021 38.2049 80.4447 38.2049C84.028 38.2049 86.4169 36.9692 86.5404 36.8045L85.1401 33.3035C84.1104 33.9625 82.71 34.6215 81.186 34.6215ZM80.527 25.0248C81.3096 25.0248 81.7627 25.519 81.7627 26.3428C81.7627 27.9079 79.4973 28.6905 77.7674 28.8141C77.8498 26.5899 78.9207 25.0248 80.527 25.0248Z" fill="#FF1E0A"/>
<path d="M93.5845 23.6656V21.4415H89.2598V37.7518H94.573V28.4022C94.573 24.2422 99.3096 26.1369 99.5979 26.9606V22.3888C99.0625 21.6062 95.6439 20.0823 93.5845 23.6656Z" fill="#FF1E0A"/>
<path d="M109.03 21.1533C106.6 21.2357 104.211 21.6476 101.945 22.389V44.7128H107.3V37.7932C108.041 38.0815 108.865 38.2463 109.647 38.2463C114.055 38.2463 116.773 35.3631 116.773 29.7204C116.773 24.0777 114.137 21.1533 109.03 21.1533ZM108.741 34.2099C108.288 34.2099 107.67 34.2099 107.259 33.798V25.3133C107.67 25.1897 108.082 25.1074 108.535 25.1074C111.089 25.1074 111.377 27.7846 111.377 29.8851C111.377 31.9445 110.883 34.2099 108.741 34.2099Z" fill="#FF1E0A"/>
<path d="M143.669 33.5507L143.545 33.5919C142.969 33.839 142.351 34.0038 141.692 34.0449C140.662 34.0449 140.333 33.3859 140.333 31.9444V16.8696H135.02V32.3562C135.02 35.4041 135.308 38.2049 140.25 38.2049C143.298 38.2049 145.152 36.7222 145.152 36.7222L143.669 33.5507Z" fill="#FF1E0A"/>
<path d="M127.358 34.6215C125.422 34.6215 124.351 33.4271 124.187 32.0267C127.317 31.8208 132.548 30.9146 132.548 26.3016C132.548 22.9654 130.324 21.3179 126.987 21.3179C121.551 21.3179 118.791 25.7662 118.791 30.3792C118.791 35.5689 121.633 38.2049 126.576 38.2049C130.159 38.2049 132.548 36.9692 132.671 36.8045C132.671 36.8045 131.436 34.1273 131.106 33.3859C130.118 34.0037 128.8 34.6215 127.358 34.6215ZM126.658 25.066C127.44 25.066 127.894 25.5602 127.894 26.384C127.894 27.9491 125.628 28.7317 123.898 28.8552C124.022 26.6311 125.093 25.066 126.658 25.066Z" fill="#FF1E0A"/>
<path d="M69.7367 25.5603L72.1256 21.4003H67.1007V16.8696H61.7051V31.862C61.7051 35.0335 61.911 38.2049 67.3478 38.2049C69.7367 38.2049 71.0547 37.4223 71.4666 37.134L70.0662 34.0449C69.7367 34.1273 69.366 34.1685 69.0365 34.1685C67.9656 34.1685 67.1419 33.7154 67.1419 31.9856V25.5603H69.7367Z" fill="#FF1E0A"/>
<path d="M39.464 39.1109C38.805 39.1109 38.1872 39.0697 37.5694 38.9873C33.986 38.4519 30.8558 36.4749 28.8376 33.6329C27.3548 31.5323 26.4487 28.9375 26.4487 26.1779C26.4487 23.3771 27.3136 20.8235 28.8376 18.7229C30.8558 15.8809 33.9448 13.8627 37.5694 13.3685C38.1872 13.2861 38.805 13.2449 39.464 13.2449C46.6307 13.2449 52.4382 19.0524 52.4382 26.2191C52.4382 15.9633 44.1594 7.68457 33.9037 7.68457C23.6479 7.68457 15.3691 15.9633 15.3691 26.2191C15.3691 36.4749 23.6479 44.7536 33.9037 44.7536C44.1594 44.7536 52.4382 36.4749 52.4382 26.2191C52.4382 33.3034 46.6307 39.1109 39.464 39.1109Z" fill="#FF1E0A"/>
<path d="M39.465 13.1626C38.8059 13.1626 38.1881 13.2038 37.5703 13.2862C43.8309 14.1923 48.6498 19.5879 48.6498 26.1368C48.6498 32.6444 43.8309 38.04 37.5703 38.9874C38.1881 39.0697 38.8059 39.1109 39.465 39.1109C46.6316 39.1109 52.4391 33.3034 52.4391 26.1368C52.4391 18.9701 46.6316 13.1626 39.465 13.1626Z" fill="#FDB913"/>
<path d="M37.5697 13.3271C33.9864 13.8626 30.8561 15.8396 28.8379 18.6816C29.95 18.1461 31.2268 17.8166 32.5448 17.8166C37.1578 17.8166 40.9059 21.5647 40.9059 26.1366C40.9059 30.7496 37.1578 34.4977 32.5448 34.4977C31.2268 34.4977 29.95 34.1682 28.8379 33.6327C30.8561 36.4747 33.9452 38.4929 37.5697 38.9872C43.8303 38.081 48.6492 32.6854 48.6492 26.1366C48.6904 19.6289 43.8714 14.2333 37.5697 13.3271Z" fill="#FFE500"/>
</g>
<defs>
<clipPath id="clip0">
<rect width="129.783" height="37.069" fill="white" transform="translate(15.3691 7.68457)"/>
</clipPath>
</defs>
</svg>
