<svg width="56" height="44" viewBox="0 0 56 44" fill="none" xmlns="http://www.w3.org/2000/svg">
<rect x="1" y="5.36816" width="54" height="34" stroke="#666666"/>
<g clip-path="url(#clip0)">
<path d="M39.6796 20.0742H37.7578V22.0619H39.6796V20.0742Z" fill="#666666"/>
<path d="M39.6796 22.7715H37.7578V30.1563H39.6796V22.7715Z" fill="#666666"/>
<path d="M42.6659 20.0742H40.7441V30.1561H42.6659V20.0742Z" fill="#666666"/>
<path d="M11.7891 20.0713H14.7758L16.4648 26.2647H16.4895L18.2059 20.0713H21.116V30.1561H19.1915V23.0258H19.1668L17.3217 30.1561H15.556L13.7382 23.0258H13.7108V30.1561H11.7891V20.0713Z" fill="#666666"/>
<path d="M33.3503 28.2523C34.2537 28.2523 34.9873 27.4531 34.9873 26.4652C34.9873 25.4774 34.2537 24.6752 33.3503 24.6752C32.4469 24.6752 31.7159 25.4774 31.7159 26.4652C31.7159 27.4531 32.4496 28.2523 33.3503 28.2523ZM29.7832 30.1561V20.0713H31.705V23.3401C32.2361 22.8432 32.8465 22.6007 33.5501 22.6007C35.4993 22.6007 36.9529 24.4028 36.9529 26.4772C36.9529 28.5517 35.4856 30.3268 33.5501 30.3268C32.8219 30.3268 32.2005 30.0993 31.705 29.5036V30.1561H29.7832Z" fill="#666666"/>
<path d="M25.3995 22.5557C23.4257 22.5557 21.8242 24.3068 21.8242 26.4651C21.8242 28.6233 23.4257 30.3745 25.3995 30.3745C27.3733 30.3745 28.9748 28.6233 28.9748 26.4651C28.9748 24.3038 27.376 22.5557 25.3995 22.5557ZM25.3995 29.5004C23.8665 29.5004 22.6236 28.1414 22.6236 26.4651C22.6236 24.7888 23.8665 23.4297 25.3995 23.4297C26.9325 23.4297 28.1754 24.7888 28.1754 26.4651C28.1781 28.1414 26.9325 29.5004 25.3995 29.5004Z" fill="#666666"/>
<path d="M25.3992 23.9629C24.1371 23.9629 23.1133 25.0824 23.1133 26.4624C23.1133 27.8424 24.1371 28.9619 25.3992 28.9619C26.6612 28.9619 27.685 27.8424 27.685 26.4624C27.685 25.0824 26.6612 23.9629 25.3992 23.9629ZM25.3992 28.1357C24.556 28.1357 23.8716 27.3874 23.8716 26.4654C23.8716 25.5404 24.556 24.7951 25.3992 24.7951C26.2423 24.7951 26.9267 25.5434 26.9267 26.4654C26.9267 27.3874 26.2423 28.1357 25.3992 28.1357Z" fill="#666666"/>
<path d="M43.8869 21.0801H43.6952V20.2509H43.416V20.0713H44.1661V20.2509H43.8869V21.0801Z" fill="#666666"/>
<path d="M45.1647 21.0801H44.984V20.2389L44.8116 21.0801H44.6227L44.4557 20.2389H44.4502V21.0801H44.2695V20.0713H44.5542L44.7212 20.8675H44.724L44.8855 20.0713H45.1647V21.0801Z" fill="#666666"/>
<path d="M14.2609 17.4972V17.8505H12.2871V13.5908H12.6457V17.4972H14.2609Z" fill="#666666"/>
<path d="M17.2043 17.8509C17.1359 17.6743 17.0866 17.4558 17.0538 17.1444C16.8594 17.6922 16.4789 17.9587 15.9861 17.9587C15.4331 17.9587 14.8418 17.6114 14.8418 16.5338V14.8096H15.1949L15.2004 16.4769C15.2059 17.2911 15.6138 17.5964 16.0792 17.5964C16.6212 17.5964 17.051 17.1834 17.051 16.2404V14.8096H17.4042V16.878C17.4042 17.2612 17.4589 17.5605 17.5547 17.8509H17.2043Z" fill="#666666"/>
<path d="M21.3072 16.3298C21.3072 17.4194 20.642 17.9552 19.9494 17.9552C19.4676 17.9552 19.0214 17.6739 18.8024 17.129L18.7969 17.165V17.8535H18.4629V13.5908H18.816V15.4946C19.0405 14.9648 19.4758 14.7044 19.9439 14.7044C20.6365 14.7044 21.3072 15.2462 21.3072 16.3298ZM20.9431 16.3298C20.9431 15.5036 20.4066 15.0456 19.8755 15.0456C19.3499 15.0456 18.8133 15.5006 18.8133 16.3298C18.8133 17.156 19.3499 17.614 19.8755 17.614C20.4066 17.611 20.9431 17.15 20.9431 16.3298Z" fill="#666666"/>
<path d="M23.7971 14.7821L23.7013 15.1473C22.8581 14.9288 22.3763 15.6352 22.3763 16.2369V17.8504H22.0259V15.7819C22.0259 15.3988 21.9931 15.1234 21.9082 14.8091H22.2668C22.3161 15.0276 22.3626 15.3209 22.3736 15.5754C22.5844 15.0575 23.0525 14.5995 23.7971 14.7821Z" fill="#666666"/>
<path d="M24.1328 13.7795C24.1328 13.561 24.2889 13.4023 24.486 13.4023C24.6803 13.4023 24.8336 13.561 24.8336 13.7795C24.8336 13.998 24.6831 14.1567 24.486 14.1567C24.2916 14.1567 24.1328 13.998 24.1328 13.7795ZM24.308 14.8093H24.6612V17.8506H24.308V14.8093Z" fill="#666666"/>
<path d="M27.0132 14.6982C27.4101 14.6982 27.7222 14.827 27.9522 14.9796L27.8919 15.3269C27.7304 15.1862 27.4101 15.0395 27.0323 15.0395C26.3507 15.0395 25.7977 15.5394 25.7977 16.3356C25.7977 17.1319 26.3507 17.6198 27.0378 17.6198C27.4129 17.6198 27.7304 17.4731 27.8919 17.3414L27.9604 17.6707C27.7359 17.8413 27.4129 17.9641 27.0159 17.9641C26.1372 17.9641 25.4336 17.3564 25.4336 16.3386C25.4309 15.2939 26.1563 14.6982 27.0132 14.6982Z" fill="#666666"/>
<path d="M30.7449 17.8503C30.712 17.6977 30.6901 17.545 30.671 17.3804C30.4246 17.7875 29.9784 17.9461 29.5705 17.9461C28.9792 17.9461 28.4316 17.5929 28.4316 16.9313C28.4316 16.2698 28.9846 15.9166 29.6006 15.9166C29.9702 15.9166 30.3945 16.0453 30.6573 16.3716V15.9226C30.6573 15.3688 30.2384 15.0395 29.6334 15.0395C29.3433 15.0395 29.012 15.1173 28.7218 15.2879L28.626 14.9587C28.9901 14.7821 29.3405 14.6982 29.6663 14.6982C30.4054 14.6982 30.9968 15.1293 30.9968 15.8956V16.8745C30.9968 17.2576 31.0515 17.557 31.1473 17.8473H30.7449V17.8503ZM30.6463 16.9194C30.6463 16.5003 30.1673 16.2309 29.6636 16.2309C29.2502 16.2309 28.7793 16.4135 28.7793 16.9313C28.7793 17.4372 29.2201 17.6318 29.628 17.6318C30.1153 17.6318 30.6463 17.3684 30.6463 16.9194Z" fill="#666666"/>
<path d="M34.5842 16.2309V17.8503H34.231V16.2788C34.231 15.3897 33.8067 15.0485 33.3139 15.0485C32.7171 15.0485 32.2134 15.5364 32.2134 16.5751V17.8473H31.8603V15.7819C31.8603 15.3987 31.8329 15.1233 31.748 14.809H32.1012C32.1587 15.0575 32.208 15.3748 32.2134 15.6112C32.4324 14.9916 32.8677 14.6982 33.3714 14.6982C33.9846 14.6982 34.5842 15.1413 34.5842 16.2309Z" fill="#666666"/>
<path d="M35.1934 14.8453C35.6505 14.8453 35.7135 14.8513 35.7135 14.2915V14.085H36.042V14.8094H37.0357V15.1267H36.0447V17.0724C36.0447 17.4436 36.2638 17.6082 36.5266 17.6082C36.7401 17.6082 36.9783 17.4975 37.1644 17.3089L37.2493 17.6441C37.0357 17.8507 36.762 17.9555 36.5074 17.9555C36.0721 17.9555 35.6971 17.6681 35.6971 17.1233V15.1237H35.1988V14.8453H35.1934Z" fill="#666666"/>
<path d="M40.4912 16.3955H37.9973C38.0301 17.1199 38.5229 17.6258 39.2046 17.6258C39.5522 17.6258 39.9191 17.4971 40.2886 17.2666L40.379 17.6019C39.9766 17.8264 39.5906 17.9611 39.1936 17.9611C38.3614 17.9611 37.6387 17.3414 37.6387 16.3177C37.6387 15.264 38.3751 14.6982 39.0923 14.6982C39.7849 14.6982 40.4337 15.2161 40.4885 16.2129V16.3955H40.4912ZM40.1326 16.0782C40.0724 15.4526 39.6234 15.0305 39.0923 15.0305C38.5612 15.0305 38.1095 15.4496 38.0137 16.0782H40.1326Z" fill="#666666"/>
<path d="M41.0037 17.2276C41.3048 17.488 41.7072 17.6287 42.0494 17.6287C42.4847 17.6287 42.7694 17.3923 42.7749 17.0809C42.7804 16.7457 42.4683 16.599 42.0193 16.4104L41.9071 16.3685C41.4828 16.1919 41.0475 15.9794 41.0393 15.4914C41.0338 14.9796 41.4964 14.7012 42.1015 14.7012C42.3971 14.7012 42.7174 14.767 43.024 14.9257L42.9063 15.243C42.6709 15.1083 42.3807 15.0245 42.085 15.0245C41.7155 15.0245 41.3869 15.1592 41.3869 15.4675C41.3869 15.7489 41.6388 15.8806 42.085 16.0692L42.1918 16.1111C42.6052 16.2817 43.1253 16.5002 43.1144 17.066C43.1089 17.6078 42.6462 17.949 42.0357 17.949C41.6662 17.949 41.2473 17.8263 40.8613 17.5359L41.0037 17.2276Z" fill="#666666"/>
</g>
<defs>
<clipPath id="clip0">
<rect width="33.819" height="33.819" fill="white" transform="translate(11.5 4.86816)"/>
</clipPath>
</defs>
</svg>
