<svg width="173" height="53" viewBox="0 0 173 53" fill="none" xmlns="http://www.w3.org/2000/svg">
<path d="M0 0H172.994C172.994 0 173.692 30.7971 159.5 52.9377H0V0Z" fill="white"/>
<g clip-path="url(#clip0)">
<path d="M81.1871 34.6213C79.2513 34.6213 78.1804 33.4269 78.0569 32.0265C81.1871 31.8206 86.418 30.9144 86.418 26.3014C86.418 22.9652 84.1938 21.3177 80.8576 21.3177C75.4208 21.3177 72.6613 25.7659 72.6613 30.379C72.6613 35.5686 75.5032 38.2047 80.4457 38.2047C84.0291 38.2047 86.418 36.969 86.5415 36.8043L85.1412 33.3033C84.1115 33.9623 82.7111 34.6213 81.1871 34.6213ZM80.5281 25.0246C81.3107 25.0246 81.7638 25.5188 81.7638 26.3426C81.7638 27.9077 79.4984 28.6903 77.7685 28.8138C77.8509 26.5897 78.9218 25.0246 80.5281 25.0246Z" fill="#FF1E0A"/>
<path d="M93.5847 23.6654V21.4412H89.26V37.7516H94.5732V28.402C94.5732 24.242 99.3098 26.1366 99.5982 26.9604V22.3886C99.0627 21.606 95.6441 20.082 93.5847 23.6654Z" fill="#FF1E0A"/>
<path d="M109.03 21.1529C106.6 21.2353 104.211 21.6471 101.946 22.3885V44.7123H107.3V37.7928C108.042 38.0811 108.865 38.2458 109.648 38.2458C114.055 38.2458 116.773 35.3627 116.773 29.72C116.773 24.0772 114.137 21.1529 109.03 21.1529ZM108.742 34.2094C108.289 34.2094 107.671 34.2094 107.259 33.7976V25.3129C107.671 25.1893 108.083 25.1069 108.536 25.1069C111.089 25.1069 111.378 27.7841 111.378 29.8847C111.378 31.9441 110.884 34.2094 108.742 34.2094Z" fill="#FF1E0A"/>
<path d="M143.669 33.5505L143.546 33.5916C142.969 33.8388 142.351 34.0035 141.692 34.0447C140.662 34.0447 140.333 33.3857 140.333 31.9441V16.8694H135.02V32.356C135.02 35.4039 135.308 38.2047 140.251 38.2047C143.298 38.2047 145.152 36.7219 145.152 36.7219L143.669 33.5505Z" fill="#FF1E0A"/>
<path d="M127.359 34.6213C125.423 34.6213 124.352 33.4269 124.187 32.0265C127.318 31.8206 132.548 30.9144 132.548 26.3014C132.548 22.9652 130.324 21.3177 126.988 21.3177C121.551 21.3177 118.792 25.7659 118.792 30.379C118.792 35.5686 121.634 38.2047 126.576 38.2047C130.159 38.2047 132.548 36.969 132.672 36.8043C132.672 36.8043 131.436 34.1271 131.107 33.3857C130.118 34.0035 128.8 34.6213 127.359 34.6213ZM126.659 25.0657C127.441 25.0657 127.894 25.56 127.894 26.3838C127.894 27.9489 125.629 28.7315 123.899 28.855C124.022 26.6309 125.093 25.0657 126.659 25.0657Z" fill="#FF1E0A"/>
<path d="M69.7369 25.56L72.1258 21.4H67.1009V16.8694H61.7053V31.8618C61.7053 35.0332 61.9113 38.2047 67.3481 38.2047C69.7369 38.2047 71.055 37.4221 71.4668 37.1338L70.0665 34.0447C69.7369 34.1271 69.3663 34.1683 69.0368 34.1683C67.9659 34.1683 67.1421 33.7152 67.1421 31.9853V25.56H69.7369Z" fill="#FF1E0A"/>
<path d="M39.4639 39.1108C38.8049 39.1108 38.1871 39.0696 37.5693 38.9872C33.9859 38.4518 30.8556 36.4748 28.8374 33.6328C27.3547 31.5323 26.4485 28.9374 26.4485 26.1778C26.4485 23.3771 27.3135 20.8234 28.8374 18.7228C30.8556 15.8809 33.9447 13.8627 37.5693 13.3684C38.1871 13.2861 38.8049 13.2449 39.4639 13.2449C46.6306 13.2449 52.4381 19.0523 52.4381 26.219C52.4381 15.9633 44.1593 7.68451 33.9035 7.68451C23.6478 7.68451 15.369 15.9633 15.369 26.219C15.369 36.4748 23.6478 44.7535 33.9035 44.7535C44.1593 44.7535 52.4381 36.4748 52.4381 26.219C52.4381 33.3033 46.6306 39.1108 39.4639 39.1108Z" fill="#FF1E0A"/>
<path d="M39.4639 13.1625C38.8049 13.1625 38.1871 13.2037 37.5693 13.286C43.8298 14.1922 48.6488 19.5878 48.6488 26.1366C48.6488 32.6443 43.8298 38.0399 37.5693 38.9872C38.1871 39.0696 38.8049 39.1108 39.4639 39.1108C46.6306 39.1108 52.4381 33.3033 52.4381 26.1366C52.4381 18.97 46.6306 13.1625 39.4639 13.1625Z" fill="#FDB913"/>
<path d="M37.5693 13.3272C33.9859 13.8627 30.8557 15.8397 28.8375 18.6817C29.9495 18.1462 31.2264 17.8167 32.5444 17.8167C37.1574 17.8167 40.9055 21.5648 40.9055 26.1367C40.9055 30.7497 37.1574 34.4978 32.5444 34.4978C31.2264 34.4978 29.9495 34.1683 28.8375 33.6328C30.8557 36.4748 33.9448 38.493 37.5693 38.9873C43.8298 38.0811 48.6488 32.6855 48.6488 26.1367C48.69 19.629 43.871 14.2334 37.5693 13.3272Z" fill="#FFE500"/>
</g>
<defs>
<clipPath id="clip0">
<rect width="129.783" height="37.069" fill="white" transform="translate(15.369 7.68451)"/>
</clipPath>
</defs>
</svg>
