<svg width="160" height="49" viewBox="0 0 160 49" fill="none" xmlns="http://www.w3.org/2000/svg">
<path d="M0 0.0566406H69.9625C69.9625 0.0566406 70.2444 28.2761 64.505 48.5636H0V0.0566406Z" fill="white"/>
<g clip-path="url(#clip0)">
<path d="M38.1717 35.7954C37.565 35.7954 36.9963 35.7577 36.4275 35.6823C33.1287 35.1922 30.247 33.3828 28.3891 30.7818C27.0241 28.8593 26.1899 26.4844 26.1899 23.9588C26.1899 21.3954 26.9862 19.0583 28.3891 17.1358C30.247 14.5347 33.0908 12.6876 36.4275 12.2353C36.9963 12.1599 37.565 12.1222 38.1717 12.1222C44.7693 12.1222 50.1156 17.4373 50.1156 23.9965C50.1156 14.6101 42.4942 7.0332 33.0529 7.0332C23.6116 7.0332 15.9902 14.6101 15.9902 23.9965C15.9902 33.3828 23.6116 40.9597 33.0529 40.9597C42.4942 40.9597 50.1156 33.3828 50.1156 23.9965C50.1156 30.4802 44.7693 35.7954 38.1717 35.7954Z" fill="#FF1E0A"/>
<path d="M38.1719 12.0469C37.5652 12.0469 36.9965 12.0846 36.4277 12.16C42.1911 12.9893 46.6274 17.9275 46.6274 23.9212C46.6274 29.8772 42.1911 34.8154 36.4277 35.6824C36.9965 35.7578 37.5652 35.7955 38.1719 35.7955C44.7695 35.7955 50.1158 30.4803 50.1158 23.9212C50.1158 17.362 44.7695 12.0469 38.1719 12.0469Z" fill="#FDB913"/>
<path d="M36.4271 12.1982C33.1283 12.6883 30.2466 14.4977 28.3887 17.0987C29.4124 16.6087 30.5879 16.3071 31.8012 16.3071C36.0479 16.3071 39.4984 19.7375 39.4984 23.9217C39.4984 28.1437 36.0479 31.5741 31.8012 31.5741C30.5879 31.5741 29.4124 31.2725 28.3887 30.7824C30.2466 33.3835 33.0904 35.2306 36.4271 35.6829C42.1905 34.8536 46.6268 29.9154 46.6268 23.9217C46.6647 17.9658 42.2284 13.0276 36.4271 12.1982Z" fill="#FFE500"/>
</g>
<defs>
<clipPath id="clip0">
<rect width="37.7441" height="33.8633" fill="white" transform="translate(15.6504 7.37891)"/>
</clipPath>
</defs>
</svg>
