<svg width="71" height="71" viewBox="0 0 71 71" fill="none" xmlns="http://www.w3.org/2000/svg">
<path d="M58.6541 23.426C58.1471 22.9165 57.4379 22.6358 56.6673 22.6256L56.6674 22.5814L48.3591 22.5167C48.1769 22.472 47.9863 22.4799 47.8066 22.5374L14.0869 22.3216C14.0785 22.3298 14.073 22.3353 14.0647 22.3436C12.5013 22.3398 11.2332 23.6017 11.2293 25.165L11.2405 29.5624C11.2365 30.0623 11.6056 30.4886 12.0999 30.5589C13.1934 30.6831 14.3386 31.1251 15.1238 31.9143C17.0002 33.7999 16.9239 36.7359 15.1075 38.5434C14.2851 39.3617 13.2399 39.8066 12.1432 39.8619C11.6128 39.8993 11.2029 40.3457 11.2126 40.8761L11.2018 45.2513C11.1979 46.8147 12.4599 48.0828 14.0232 48.0867L47.5002 48.1915C47.8421 48.4022 48.2786 48.3867 48.6051 48.15L56.4495 48.1915C56.4964 48.1999 56.5351 48.1889 56.5821 48.1918C58.1451 48.3338 59.4355 47.0443 59.4392 45.5251L59.428 41.1277C59.432 40.6278 59.0629 40.2015 58.5686 40.1312C57.4807 40.007 56.5176 39.6207 55.6993 38.7983C53.8229 36.9127 53.8772 33.9545 55.6936 32.1471C56.516 31.3287 57.5031 30.9251 58.5917 30.8063C59.0863 30.7385 59.4574 30.314 59.4559 29.8141L59.4667 25.4388C59.4686 24.6599 59.1666 23.941 58.6541 23.426ZM57.2142 24.8588C57.3713 25.0166 57.4785 25.224 57.478 25.4339L57.469 29.0578C56.3304 29.3312 55.1994 29.8174 54.2829 30.7294C51.705 33.2945 51.642 37.5564 54.2816 40.209C55.1964 41.1283 56.3001 41.5951 57.4374 41.8741L57.4284 45.498C57.4274 45.9179 57.0978 46.2789 56.7416 46.2255C56.6919 46.2144 56.6395 46.2059 56.587 46.2031L49.0298 46.1844C49.0167 45.9109 48.8875 45.6537 48.678 45.4764C48.3886 45.2354 47.991 45.1792 47.6426 45.3275C47.2997 45.4758 47.0641 45.8039 47.0411 46.1795L14.0281 46.098C13.6083 46.0969 13.1895 45.676 13.1905 45.2562L13.1995 41.6323C14.421 41.3757 15.5989 40.8759 16.5182 39.9611C19.0961 37.3959 19.1811 33.1562 16.5415 30.5036C15.5965 29.5538 14.4016 29.0841 13.2311 28.816L13.2401 25.1921C13.2411 24.7723 13.662 24.3535 14.0818 24.3545L47.0946 24.5244C47.0849 25.0796 47.5313 25.5337 48.0864 25.5433C48.6416 25.553 49.0957 25.1066 49.1053 24.5515L56.6404 24.5922C56.8503 24.5927 57.0572 24.7009 57.2142 24.8588ZM48.6778 27.6661L47.7944 27.4872L47.1299 28.1042L47.0849 28.4577L47.0579 30.4243L47.4757 31.2429L48.3593 31.3776L49.0016 30.7826L49.0908 30.4293L49.0736 28.4626L48.6778 27.6661ZM48.6632 33.5881L47.7796 33.4533L47.1373 34.0484L47.0481 34.4017L47.0432 36.3904L47.4389 37.1869L48.3445 37.3438L48.9868 36.7488L49.0761 36.3955L49.081 34.4067L48.6632 33.5881ZM48.6484 39.5543L47.787 39.3975L47.1226 40.0146L47.0555 40.3459L47.0506 42.3346L47.4464 43.1311L48.3298 43.31L48.9942 42.693L49.0393 42.3395L49.0442 40.3508L48.6484 39.5543Z" fill="#FF1E0A"/>
</svg>
