<svg width="26" height="26" viewBox="0 0 26 26" fill="none" xmlns="http://www.w3.org/2000/svg">
<path d="M1.50195 17.6831L1.51118 15.8426C1.51176 15.7247 1.55338 15.6107 1.62888 15.5201C1.70439 15.4295 1.80907 15.368 1.92497 15.3461C2.46477 15.247 2.95285 14.962 3.30451 14.5406C3.65617 14.1193 3.84923 13.5881 3.85019 13.0393L3.85019 13.0067C3.84725 12.4519 3.65348 11.915 3.30142 11.4861C2.94937 11.0573 2.46046 10.7627 1.91683 10.6517C1.80275 10.6282 1.70022 10.5663 1.62642 10.4761C1.55262 10.386 1.51204 10.2733 1.51147 10.1568L1.50215 8.3165L1.50215 8.30341C1.50223 7.63006 1.76977 6.98432 2.24593 6.50822C2.72209 6.03212 3.36786 5.76465 4.04121 5.76465L21.9592 5.76465C22.6323 5.76541 23.2777 6.03317 23.7537 6.50917C24.2297 6.98517 24.4975 7.63054 24.4982 8.30371L24.4982 9.86206C24.4982 9.98857 24.451 10.1105 24.3658 10.204C24.2806 10.2976 24.1636 10.3559 24.0376 10.3677C23.4472 10.4236 22.8985 10.6964 22.4976 11.1334C22.0966 11.5704 21.872 12.1405 21.8671 12.7336L21.8671 12.7637C21.8709 13.3515 22.0954 13.9164 22.496 14.3465C22.8967 14.7765 23.4443 15.0404 24.0304 15.0857C24.1577 15.0957 24.2766 15.1534 24.3633 15.2473C24.4501 15.3411 24.4982 15.4641 24.4982 15.5919L24.4982 17.6959C24.4975 18.369 24.2297 19.0144 23.7537 19.4904C23.2777 19.9664 22.6323 20.2342 21.9592 20.2349L4.04102 20.2349C3.36767 20.2349 2.72189 19.9675 2.24573 19.4914C1.76958 19.0153 1.50203 18.3695 1.50195 17.6962L1.50195 17.6831ZM2.51748 17.6883L2.51748 17.6962C2.51748 18.1002 2.67798 18.4877 2.96368 18.7734C3.24938 19.0591 3.63688 19.2196 4.04092 19.2196L21.9591 19.2196L21.9591 19.2193C22.363 19.2188 22.7502 19.0582 23.0358 18.7726C23.3214 18.487 23.482 18.0998 23.4825 17.6959L23.4825 16.028C21.9546 15.6881 20.8304 14.3184 20.8515 12.7203C20.8588 11.9567 21.122 11.2177 21.599 10.6214C22.076 10.025 22.7392 9.60595 23.4825 9.43111L23.4825 8.30371C23.482 7.89981 23.3214 7.51258 23.0358 7.22698C22.7502 6.94138 22.363 6.78073 21.9591 6.78027L4.04102 6.78027C3.63698 6.78027 3.24948 6.94078 2.96378 7.22648C2.67808 7.51218 2.51758 7.89967 2.51758 8.30371L2.51758 8.31164L2.52492 9.76546C3.20307 9.99192 3.79337 10.4249 4.2131 11.0037C4.63284 11.5825 4.86096 12.2781 4.86552 12.993C4.86552 13.0087 4.86581 13.0241 4.86581 13.0398C4.86547 13.7525 4.63848 14.4467 4.21767 15.022C3.79686 15.5973 3.20401 16.0239 2.52482 16.2402L2.51748 17.6883ZM11.2176 11.0701C11.2176 10.9354 11.2711 10.8063 11.3664 10.711C11.4616 10.6158 11.5908 10.5623 11.7254 10.5623C11.8601 10.5623 11.9893 10.6158 12.0845 10.711C12.1798 10.8063 12.2333 10.9354 12.2333 11.0701L12.2333 14.9295C12.2333 15.0642 12.1798 15.1933 12.0845 15.2885C11.9893 15.3838 11.8601 15.4373 11.7254 15.4373C11.5908 15.4373 11.4616 15.3838 11.3664 15.2885C11.2711 15.1933 11.2176 15.0642 11.2176 14.9295L11.2176 11.0701ZM13.7567 10.5623C13.7567 10.4276 13.8102 10.2984 13.9054 10.2032C14.0007 10.108 14.1298 10.0545 14.2645 10.0545C14.3992 10.0545 14.5284 10.108 14.6236 10.2032C14.7188 10.2984 14.7723 10.4276 14.7723 10.5623L14.7723 15.4373C14.7723 15.572 14.7188 15.7011 14.6236 15.7964C14.5284 15.8916 14.3992 15.9451 14.2645 15.9451C14.1298 15.9451 14.0007 15.8916 13.9054 15.7964C13.8102 15.7011 13.7567 15.572 13.7567 15.4373L13.7567 10.5623Z" fill="#FF1E0A"/>
</svg>
