<svg width="106" height="106" viewBox="0 0 106 106" fill="none" xmlns="http://www.w3.org/2000/svg">
<path d="M83.5306 25.1835H74.0892V20.0795C74.0892 19.2883 73.4521 18.6631 72.6749 18.6631H33.5971C32.8072 18.6631 32.1701 19.3011 32.1701 20.0795V25.1835H22.7287C21.9515 25.1835 21.3145 25.8215 21.3145 26.6127V48.356C21.3145 54.7234 24.1558 60.6696 29.0994 64.689C29.3543 64.8932 29.6728 65.0081 29.9913 65.0081H40.108C40.8979 65.0081 41.5223 64.37 41.5223 63.5917V62.9537C41.5223 62.5453 41.3566 62.1625 41.0508 61.8946C37.2157 58.4493 35.0114 53.5239 35.0114 48.3688V35.3024H32.1701V48.356C32.1701 53.4473 34.0303 58.36 37.3431 62.1625H30.501C26.462 58.7045 24.143 53.7025 24.143 48.356V28.0291H33.5844C34.3744 28.0291 34.9987 27.391 34.9987 26.6127V21.5086H71.2606V48.356C71.2606 58.36 63.1316 66.501 53.1424 66.501C52.3524 66.501 51.7281 67.139 51.7281 67.9174V73.0214H31.4184C30.6284 73.0214 30.0041 73.6595 30.0041 74.4378V85.3095C30.0041 86.1006 30.6411 86.7259 31.4184 86.7259H74.8537C75.6436 86.7259 76.268 86.0879 76.268 85.3095V74.4378C76.268 73.6467 75.6309 73.0214 74.8537 73.0214H61.8193V75.867H73.4267V83.8931H32.8454V75.867H53.1424C53.9324 75.867 54.5567 75.229 54.5567 74.4506V69.3082C65.4506 68.5809 74.1019 59.4574 74.1019 48.356V28.0291H82.1163V46.174C82.1163 52.2479 79.1093 57.8879 74.0637 61.2693L75.6436 63.63C81.4792 59.7253 84.9576 53.1921 84.9576 46.174V26.6127C84.9576 25.8215 84.3205 25.1835 83.5306 25.1835Z" fill="white"/>
</svg>
